<svg id="Layer_1" data-name="Layer 1" xmlns="http://www.w3.org/2000/svg" viewBox="0 0 1000 1000"><defs><style>
  .cls-1{fill:hsl(12, 88%, 59%);}.cls-2{fill:hsl(223, 12%, 13%);}.cls-3,.cls-4{fill:none;stroke-miterlimit:10;}.cls-3{stroke:#1e2454;stroke-linecap:round;stroke-width:4px;}.cls-4{stroke:#fff;stroke-width:2px;}
</style>
</defs><rect class="cls-1" x="242.04" y="506.63" width="90.3" height="237.76" /><rect class="cls-2" x="242.04" y="713.69" width="90.3" height="30.7" /><rect class="cls-1" x="383.92" y="368.66" width="90.3" height="375.73" /><rect class="cls-2" x="383.92" y="713.69" width="90.3" height="30.7" /><rect class="cls-1" x="525.79" y="472.32" width="90.3" height="272.07" /><rect class="cls-2" x="525.79" y="713.69" width="90.3" height="30.7" /><rect class="cls-2" x="667.66" y="255.61" width="90.3" height="488.79" /><line class="cls-3" x1="332.34" y1="506.63" x2="332.34" y2="744.39" /><line class="cls-3" x1="474.21" y1="368.66" x2="474.21" y2="744.39" /><line class="cls-3" x1="616.08" y1="472.32" x2="616.08" y2="744.39" /><line class="cls-3" x1="757.96" y1="255.61" x2="757.96" y2="744.39" /><line class="cls-3" x1="205.63" y1="744.39" x2="794.37" y2="744.39" /><polyline class="cls-4" points="705.88 320.97 712.81 314.04 719.74 320.97" /><line class="cls-4" x1="712.81" y1="314.03" x2="712.81" y2="355.83" /><polyline class="cls-4" points="705.88 417.59 712.81 410.65 719.74 417.59" /><line class="cls-4" x1="712.81" y1="410.65" x2="712.81" y2="452.45" /><polyline class="cls-4" points="705.88 514.21 712.81 507.27 719.74 514.21" /><line class="cls-4" x1="712.81" y1="507.27" x2="712.81" y2="549.06" /></svg>